<?xml version="1.0" standalone="no"?><!DOCTYPE svg PUBLIC "-//W3C//DTD SVG 1.1//EN" "http://www.w3.org/Graphics/SVG/1.1/DTD/svg11.dtd"><svg t="1568686592995" class="icon" viewBox="0 0 1024 1024" version="1.1" xmlns="http://www.w3.org/2000/svg" p-id="14889" width="48" height="48" xmlns:xlink="http://www.w3.org/1999/xlink"><defs><style type="text/css"></style></defs><path d="M812.373333 1024h-600.746666c-116.053333 0-211.626667-95.573333-211.626667-211.626667v-600.746666c0-116.053333 95.573333-211.626667 211.626667-211.626667h600.746666c116.053333 0 211.626667 95.573333 211.626667 211.626667v600.746666c0 116.053333-95.573333 211.626667-211.626667 211.626667z" fill="#5E65EF" p-id="14890"></path><path d="M477.866667 375.466667l-47.786667 184.32c-20.48 88.746667-40.96 150.186667-61.44 184.32-20.48 40.96-40.96 68.266667-75.093333 88.746666s-61.44 27.306667-95.573334 27.306667c-20.48 0-40.96-6.826667-47.786666-13.653333-13.653333-6.826667-13.653333-20.48-13.653334-27.306667 0-13.653333 6.826667-20.48 13.653334-27.306667 6.826667-6.826667 20.48-13.653333 34.133333-13.653333s20.48 0 27.306667 6.826667 6.826667 13.653333 6.826666 20.48c0 6.826667 0 13.653333-6.826666 20.48l-6.826667 6.826666h6.826667c6.826667 0 13.653333 0 20.48-6.826666 13.653333-13.653333 27.306667-27.306667 34.133333-47.786667 6.826667-13.653333 13.653333-40.96 27.306667-95.573333l81.92-314.026667h-54.613334l13.653334-47.786667c20.48 0 34.133333 0 40.96-6.826666 6.826667-6.826667 20.48-13.653333 27.306666-34.133334 27.306667-54.613333 61.44-88.746667 88.746667-116.053333 34.133333-20.48 68.266667-34.133333 109.226667-34.133333 27.306667 0 40.96 6.826667 54.613333 13.653333 13.653333 6.826667 20.48 20.48 20.48 40.96 0 13.653333-6.826667 27.306667-13.653333 34.133333-6.826667 6.826667-13.653333 13.653333-27.306667 13.653334s-20.48 0-27.306667-6.826667c-6.826667-6.826667-13.653333-13.653333-13.653333-20.48 0-6.826667 0-13.653333 6.826667-20.48 6.826667-6.826667 6.826667-13.653333 6.826666-13.653333v-6.826667h-6.826666c-13.653333 0-34.133333 6.826667-47.786667 27.306667-27.306667 34.133333-47.786667 81.92-61.44 143.36h54.613333l-13.653333 47.786666-54.613333-6.826666zM566.613333 395.946667l116.053334-20.48c20.48 34.133333 34.133333 68.266667 40.96 109.226666 20.48-34.133333 34.133333-54.613333 47.786666-68.266666l34.133334-34.133334c6.826667-6.826667 20.48-6.826667 27.306666-6.826666 13.653333 0 20.48 0 27.306667 6.826666s6.826667 13.653333 6.826667 27.306667 0 20.48-6.826667 27.306667-13.653333 6.826667-27.306667 6.826666c-6.826667 0-13.653333 0-27.306666-6.826666-6.826667 0-13.653333-6.826667-20.48-6.826667-6.826667 0-20.48 0-27.306667 6.826667-13.653333 6.826667-27.306667 27.306667-40.96 54.613333 20.48 68.266667 34.133333 102.4 47.786667 122.88 6.826667 6.826667 13.653333 13.653333 20.48 13.653333 6.826667 0 13.653333 0 13.653333-6.826666 6.826667-6.826667 13.653333-13.653333 27.306667-34.133334l13.653333 6.826667c-20.48 34.133333-40.96 54.613333-54.613333 68.266667-13.653333 6.826667-27.306667 13.653333-40.96 13.653333-13.653333 0-27.306667 0-34.133334-6.826667-6.826667-6.826667-20.48-13.653333-27.306666-27.306666-6.826667-13.653333-13.653333-34.133333-27.306667-68.266667-27.306667 34.133333-47.786667 54.613333-61.44 68.266667s-27.306667 27.306667-34.133333 27.306666c-6.826667 6.826667-20.48 6.826667-27.306667 6.826667-13.653333 0-20.48 0-27.306667-6.826667-6.826667-6.826667-6.826667-13.653333-6.826666-27.306666s6.826667-20.48 13.653333-27.306667c6.826667-6.826667 13.653333-13.653333 27.306667-13.653333 6.826667 0 13.653333 0 20.48 6.826666 13.653333 6.826667 20.48 6.826667 20.48 6.826667 6.826667 0 13.653333 0 20.48-6.826667 6.826667 0 13.653333-13.653333 27.306666-20.48 6.826667-6.826667 20.48-20.48 34.133334-40.96-20.48-75.093333-34.133333-122.88-47.786667-136.533333-6.826667-6.826667-20.48-13.653333-27.306667-13.653333h-20.48z" fill="#FFFFFF" p-id="14891"></path></svg>