<?xml version="1.0" standalone="no"?><!DOCTYPE svg PUBLIC "-//W3C//DTD SVG 1.1//EN" "http://www.w3.org/Graphics/SVG/1.1/DTD/svg11.dtd"><svg t="1570778005216" class="icon" viewBox="0 0 1024 1024" version="1.1" xmlns="http://www.w3.org/2000/svg" p-id="27643" xmlns:xlink="http://www.w3.org/1999/xlink" width="20" height="20"><defs><style type="text/css"></style></defs><path d="M507.2 228.4c-172 0-311.4 139.4-311.4 311.4s139.4 311.4 311.4 311.4 311.4-139.4 311.4-311.4-139.6-311.4-311.4-311.4z m0 350.2c-21.4 0-39-17.4-39-39 0-21.4 17.4-39 39-39 21.4 0 39 17.4 39 39-0.2 21.6-17.6 39-39 39z" fill="#59C3F0" p-id="27644"></path><path d="M507.2 228.4c-13.2 0-26.2 0.8-39 2.4 153.6 19.2 272.4 150.2 272.4 309s-118.8 289.8-272.4 309c12.8 1.6 25.8 2.4 39 2.4 172 0 311.4-139.4 311.4-311.4-0.2-172-139.6-311.4-311.4-311.4z" fill="#21A0D6" p-id="27645"></path><path d="M507.2 851c13.2 0 26.2-0.8 39-2.4-153.6-19.2-272.4-150.2-272.4-309S392.4 249.8 546 230.8c-12.8-1.6-25.8-2.4-39-2.4-172 0-311.4 139.4-311.4 311.4 0.2 171.8 139.6 311.2 311.6 311.2z" fill="#96DCFA" p-id="27646"></path><path d="M507.2 860.8c-177 0-321-144-321-321s144-321 321-321 321 144 321 321c0 176.8-144 321-321 321z m0-622.8c-166.4 0-301.6 135.2-301.6 301.6 0 166.4 135.2 301.6 301.6 301.6S808.8 706 808.8 539.6c0-166.2-135.4-301.6-301.6-301.6z m0 353.4c-26.8 0-48.6-21.8-48.6-48.6s21.8-48.6 48.6-48.6 48.6 21.8 48.6 48.6-21.8 48.6-48.6 48.6z m0-77.8c-16 0-29.2 13-29.2 29.2 0 16 13 29.2 29.2 29.2 16 0 29.2-13 29.2-29.2s-13.2-29.2-29.2-29.2z" fill="#402943" p-id="27647"></path><path d="M507.2 426c-64.4 0-116.8 52.2-116.8 116.8 0 64.4 52.2 116.8 116.8 116.8 64.4 0 116.8-52.2 116.8-116.8-0.2-64.6-52.4-116.8-116.8-116.8z m0 155.6c-21.4 0-39-17.4-39-39 0-21.4 17.4-39 39-39 21.4 0 39 17.4 39 39-0.2 21.6-17.6 39-39 39z" fill="#E6E7E8" p-id="27648"></path><path d="M510.2 425.8c-4.8 0-9.6 0.4-14.2 0.8 56.2 7 99.6 55 99.6 113s-43.4 106-99.6 113c4.6 0.6 9.4 0.8 14.2 0.8 63 0 114-51 114-114-0.2-62.6-51.2-113.6-114-113.6z" fill="#BCBEC0" p-id="27649"></path><path d="M503.4 653.6c4.8 0 9.6-0.4 14.2-0.8-56.2-7-99.6-55-99.6-113s43.4-106 99.6-113c-4.6-0.6-9.4-0.8-14.2-0.8-63 0-114 51-114 114 0.2 62.6 51.2 113.6 114 113.6z" fill="#FFFFFF" p-id="27650"></path><path d="M507.2 669.2c-69.8 0-126.4-56.8-126.4-126.4 0-69.8 56.8-126.4 126.4-126.4s126.4 56.8 126.4 126.4c0 69.6-56.8 126.4-126.4 126.4z m0-233.4c-59 0-107 48-107 107s48 107 107 107 107-48 107-107-48-107-107-107z m0 155.6c-26.8 0-48.6-21.8-48.6-48.6s21.8-48.6 48.6-48.6 48.6 21.8 48.6 48.6-21.8 48.6-48.6 48.6z m0-77.8c-16 0-29.2 13-29.2 29.2s13 29.2 29.2 29.2c16 0 29.2-13 29.2-29.2s-13.2-29.2-29.2-29.2z" fill="#402943" p-id="27651"></path><path d="M321.4 735.2c-2.4 0-5-1-6.8-2.8-51.4-51.4-79.8-119.8-79.8-192.6 0-5.4 4.4-9.8 9.8-9.8s9.8 4.4 9.8 9.8c0 67.6 26.4 131 74 178.8 3.8 3.8 3.8 10 0 13.8-2 1.8-4.6 2.8-7 2.8zM769.8 549.4c-5.4 0-9.8-4.4-9.8-9.8 0-67.6-26.4-131-74-178.8-3.8-3.8-3.8-10 0-13.8 3.8-3.8 10-3.8 13.8 0 51.4 51.4 79.8 119.8 79.8 192.6 0 5.4-4.4 9.8-9.8 9.8zM355.8 700.8c-2.4 0-5-1-6.8-2.8-42.2-42.2-65.6-98.4-65.6-158.2 0-5.4 4.4-9.8 9.8-9.8s9.8 4.4 9.8 9.8c0 54.6 21.2 105.8 59.8 144.4 3.8 3.8 3.8 10 0 13.8-2 1.8-4.6 2.8-7 2.8zM721.2 549.4c-5.4 0-9.8-4.4-9.8-9.8 0-54.6-21.2-105.8-59.8-144.4-3.8-3.8-3.8-10 0-13.8 3.8-3.8 10-3.8 13.8 0 42.2 42.2 65.6 98.4 65.6 158.2 0 5.4-4.4 9.8-9.8 9.8zM390 666.2c-2.4 0-5-1-6.8-2.8-33-33-51-77-51-123.6 0-5.4 4.4-9.8 9.8-9.8s9.8 4.4 9.8 9.8c0 41.4 16.2 80.6 45.4 109.8 3.8 3.8 3.8 10 0 13.8-2.2 1.8-4.8 2.8-7.2 2.8zM672.6 549.4c-5.4 0-9.8-4.4-9.8-9.8 0-41.6-16.2-80.6-45.6-110-3.8-3.8-3.8-10 0-13.8 3.8-3.8 10-3.8 13.8 0 33 33 51.2 77 51.2 123.8 0 5.4-4.2 9.8-9.6 9.8z" fill="#402943" p-id="27652"></path><path d="M274.4 257.6c-5.4 0-9.8-4.4-9.8-9.8v-39c0-5.4 4.4-9.8 9.8-9.8s9.8 4.4 9.8 9.8v39c0 5.4-4.4 9.8-9.8 9.8z" fill="#402943" p-id="27653"></path><path d="M293.8 238h-39c-5.4 0-9.8-4.4-9.8-9.8s4.4-9.8 9.8-9.8h39c5.4 0 9.8 4.4 9.8 9.8s-4.4 9.8-9.8 9.8zM196.6 199.2c-5.4 0-9.8-4.4-9.8-9.8V150.4c0-5.4 4.4-9.8 9.8-9.8s9.8 4.4 9.8 9.8v39c-0.2 5.4-4.4 9.8-9.8 9.8z" fill="#402943" p-id="27654"></path><path d="M216 179.6H177c-5.4 0-9.8-4.4-9.8-9.8s4.4-9.8 9.8-9.8H216c5.4 0 9.8 4.4 9.8 9.8 0 5.6-4.4 9.8-9.8 9.8z" fill="#402943" p-id="27655"></path><path d="M216 315.8c-5.4 0-9.8-4.4-9.8-9.8v-39c0-5.4 4.4-9.8 9.8-9.8s9.8 4.4 9.8 9.8V306c0 5.6-4.4 9.8-9.8 9.8z" fill="#402943" p-id="27656"></path><path d="M235.4 296.4H196.6c-5.4 0-9.8-4.4-9.8-9.8s4.4-9.8 9.8-9.8h39c5.4 0 9.8 4.4 9.8 9.8-0.2 5.4-4.6 9.8-10 9.8z" fill="#402943" p-id="27657"></path><path d="M741.4 672.8l32.6 66 73 10.6-52.8 51.4 12.4 72.8-65.2-34.4-65.2 34.4 12.4-72.8-52.8-51.4 73-10.6z" fill="#FCD64B" p-id="27658"></path><path d="M847 749.4l-73-10.6-32.6-66-0.8 1.6v165.2l0.8-0.4 65.2 34.4-12.4-72.8z" fill="#F5AB33" p-id="27659"></path><path d="M806.6 883.2c-1.6 0-3.2-0.4-4.6-1.2l-60.6-32-60.6 32c-3.2 1.8-7.2 1.4-10.2-0.8-3-2.2-4.4-5.8-3.8-9.6l11.6-67.6-49-47.8c-2.6-2.6-3.6-6.4-2.4-10 1.2-3.6 4.2-6 7.8-6.6l67.8-9.8 30.4-61.4c1.6-3.4 5-5.4 8.8-5.4 3.8 0 7 2.2 8.8 5.4l30.4 61.4 67.8 9.8c3.6 0.6 6.8 3 7.8 6.6 1.2 3.6 0.2 7.4-2.4 10L805.2 804l11.6 67.6c0.6 3.6-0.8 7.4-3.8 9.6-2.4 1.4-4.4 2-6.4 2z m-149.8-127l38.6 37.6c2.2 2.2 3.4 5.4 2.8 8.6l-9.2 53.2 47.8-25.2c2.8-1.4 6.2-1.4 9 0l47.8 25.2-9.2-53.2c-0.6-3.2 0.6-6.4 2.8-8.6l38.6-37.6-53.4-7.8c-3.2-0.4-6-2.4-7.4-5.4l-23.8-48.4-23.8 48.4c-1.4 2.8-4.2 4.8-7.4 5.4l-53.2 7.8z" fill="#402943" p-id="27660"></path></svg>